<svg xmlns="http://www.w3.org/2000/svg" enable-background="new -360.158 1254.923 3000 3000" viewBox="-360.158 1254.923 3000 3000" id="online-shopping-order">
  <path fill="#CDEEFF" d="M2182.885 3680.427c0 17.97-129.366 32.54-288.944 32.54-159.579 0-288.944-14.57-288.944-32.54 0-17.969 129.365-32.537 288.944-32.537C2053.519 3647.889 2182.885 3662.457 2182.885 3680.427zM1772.5 3264.445c0 0-148.851-22.326-243.13 111.643 0 0 161.26 42.175 213.359 86.83 52.102 44.657 104.199 34.733 104.199 34.733S1856.85 3301.657 1772.5 3264.445z"></path>
  <path fill="#91C4F6" d="M1733.194,3361.902c0,0-15.82-39.936-14.352-40.571c1.471-0.639,21.658,42.897,21.658,42.897
				c43.06,14.179,74.612,32.952,76.423,37.182c0.629,1.471-0.05,3.172-1.521,3.802c-0.369,0.158-0.757,0.232-1.137,0.232
				c-1.043,0-2.042-0.566-2.555-1.53c-3.208-3.864-44.307-27.269-96.213-40.802c-0.045,0.03-0.082,0.071-0.126,0.099
				c0,0-47.511,24.147-46.169,23.271l38.649-25.271c-25.025-5.916-81.575-8.094-81.712-9.688
				C1626,3349.931,1701.527,3352.172,1733.194,3361.902z"></path>
  <path fill="#91C4F6" d="M2034.239,3160.247c0,0-76.912-12.404-84.353-106.679c-7.442-94.275-64.504-208.398-91.794-183.587
				c-27.288,24.81-7.444,114.122-44.657,136.452c-37.212,22.326-161.259,59.541-124.045,181.104
				c37.215,121.566,104.198,116.602,104.198,146.373c0,29.772-47.135,96.757,9.924,148.857
				c57.061,52.099,119.084,22.326,119.084,22.326L2034.239,3160.247z"></path>
  <path fill="#CDEEFF" d="M1882.191,3561.059l-12.07-184.321c-0.016-0.011-0.037-0.014-0.053-0.027
				c-25.227-21.41-59.309-50.973-57.724-50.792c6.64,0.761,41.446,29.504,57.249,42.807l-7.955-121.47
				c-0.343-0.114-0.673-0.272-0.967-0.519c-29.207-24.789-68.205-57.758-66.616-57.576c7.735,0.888,49.806,35.805,67.079,50.38
				l-6.493-99.082c-0.068-0.048-0.149-0.073-0.215-0.128c-18.571-15.76-44.328-39.549-42.739-39.364
				c4.991,0.572,28.88,20.131,42.434,31.524c0,0-4.734-92.055-3.14-92.162c1.597-0.103,10.137,110.406,10.137,110.406
				c12.062-13.107,32.747-34.97,37.555-36.155c1.553-0.382-20.659,26.198-37.031,44.154l6.428,98.134
				c16.009-17.439,51.377-55.241,58.724-57.059c1.516-0.377-32.514,36.9-58.2,65.066l7.834,119.621
				c13.69-14.924,45.272-48.735,51.844-50.368c1.553-0.385-28.445,33.271-50.751,57.754c-0.175,0.19-0.37,0.348-0.58,0.48
				l11.027,168.32c0.071,1.094-0.479,2.095-1.352,2.642c-0.392,0.245-0.851,0.401-1.348,0.434
				C1883.673,3563.863,1882.297,3562.653,1882.191,3561.059z"></path>
  <path fill="#CDEEFF" d="M2217.826,2979.14c0,0-223.283,69.465-282.824,272.9c-59.543,203.436,0,248.091,0,248.091
				s163.738-2.48,240.65-191.028C2252.559,3120.552,2217.826,2979.14,2217.826,2979.14z"></path>
  <path fill="#91C4F6" d="M1925.838,3515.297l87.747-162.54c-0.006-0.02-0.018-0.032-0.026-0.053
				c-9.987-31.542-26.956-72.011-25.966-73.253c0.999-1.246,23.493,46.572,29.808,66.24l57.826-107.118
				c-0.23-0.281-0.426-0.59-0.542-0.958c-11.566-36.517-27.072-85.175-25.823-84.175c6.081,4.867,23.157,56.805,30.035,78.329
				l47.171-87.375c-0.03-0.078-0.089-0.144-0.112-0.226c-7.352-23.22-16.526-57.063-15.281-56.061
				c3.925,3.138,13.763,32.404,19.187,49.26c0,0,44.925-80.491,46.332-79.735c1.407,0.762-50.103,98.905-50.103,98.905
				c17.185-4.687,46.327-12.214,51.03-10.659c1.518,0.5-31.425,11.207-54.84,17.715l-46.719,86.537
				c22.836-6.26,72.885-19.481,80.073-17.116c1.487,0.49-47.152,13.97-83.881,24.173l-56.949,105.492
				c19.531-5.363,64.252-17.214,70.688-15.105c1.521,0.499-41.782,13.058-73.689,21.94c-0.249,0.068-0.497,0.099-0.745,0.101
				l-80.131,148.43c-0.522,0.967-1.519,1.52-2.548,1.52c-0.464,0-0.934-0.114-1.371-0.346
				C1925.602,3518.46,1925.08,3516.703,1925.838,3515.297z"></path>
  <path fill="#DBA12C" d="M1874.397,3698.55c-1.56,0.04-3.161,0.059-4.763,0.059c-143.889,0-111.647-191.032-111.647-191.032
			h248.107C2006.094,3507.576,2032.839,3694.884,1874.397,3698.55z"></path>
  <path fill="#FFC439" d="M1874.397,3698.55c0.601-0.248,1.217-0.502,1.855-0.769c69.715-28.541,36.95-177.794,34.093-190.204
			h95.748C2006.094,3507.576,2032.839,3694.884,1874.397,3698.55z"></path>
  <g>
    <path fill="#91C4F6" d="M191.973,3688.236c10.848,6.54,803.685,7.634,998.872,7.634c195.188,0,255.485-487.321,84.111-554.293
		c-171.374-66.973-478.159-611.157-614.323-721.042c-136.165-109.884-373.661-140.278-506.659,0
		C20.976,2560.813,8.309,3577.512,191.973,3688.236z"></path>
    <path fill="#549BEC" d="M176.14,3525.576c17.58,23.23,160.442,73.887,241.719,68.61c322.533-20.944,847.37-23.477,851.82-11.611
		c6.333,16.888-768.432,22.863-886.653,24.973C264.805,3609.659,176.14,3525.576,176.14,3525.576z"></path>
    <path fill="#549BEC" d="M1369.035,3452.288c-19.546,127.045-82.8,243.604-178.216,243.604c-34.825,0-88.841,0-153.872-0.178
		c23.987-44.065,108.03-112.651,125.088-180.704c25.231-101.278-164.712-192.074-183.723-206.82
		c-17.235-13.327-255.863,324.092-299.574,386.459c-46.375,0-92.217-0.356-136.459-0.534
		c56.325-83.688,196.694-270.61,179.636-316.275c-22.21-59.168-309.344,58.991-347.369-38.022
		c-38.024-97.194,86.531-310.413,80.313-328.712c-6.396-18.302-92.927,24.696-177.327-37.138
		c-84.577-62.011,80.134-476.545,66.097-478.853c-10.484-1.957-81.557-69.474-106.254-135.574
		c110.34-53.658,250.354-38.378,358.385,18.657c0,175.728-0.178,419.154-1.599,454.869
		c-2.132,57.035,484.718,221.747,484.718,221.747L1369.035,3452.288z"></path>
  </g>
  <g>
    <path fill="#D7A28E" d="M838.602,2369.186l162.442,153.627c0,0,12.667,60.166,7.917,77.582
		c-4.75,17.417-81.953,20.551-81.953,20.551l-130.211-87.842L838.602,2369.186z"></path>
    <polygon fill="#11405C" points="779.572 3698.754 768.652 3701.077 783.39 3709.973"></polygon>
    <path fill="#11405C" d="M631.874,3671.065c0,0-16.851,5.856-9.424,19.996c7.43,14.14,127.766,89.993,161.054,94.741
			c33.289,4.746,79.871-33.57,62.01-42.231C827.65,3734.909,631.874,3671.065,631.874,3671.065z"></path>
    <path fill="#FFC439" d="M648.899,3667.88c0,0-31.497,1.335-24.069,15.475c7.428,14.143,127.766,89.994,161.054,94.74
			c33.29,4.748,77.492-25.863,59.631-34.524C827.65,3734.909,648.899,3667.88,648.899,3667.88z"></path>
    <path fill="#D7A28E" d="M745.549,3750.626c-11.413-6.847-24.701-14.738-37.962-22.922c-43.355-26.779-86.449-56.771-63.347-64.53
			c18.328-6.174,41.225-25.433,56.329-39.584c9.714-9.067,16.188-16.043,16.188-16.043l51.738,31.29l-30.055,39.002
			c0,0,43.514,39.381,87.198,50.019C854.881,3734.982,794.283,3779.897,745.549,3750.626z"></path>
    <path fill="#2F627C" d="M714.044,3740.209c0,0,73.368-18.374,95.79-1.321c0,0-12.748-14.994-11.846-28.143
			c0,0-14.416-15.758-18.416-11.992c-6.213,5.856,16.902,29.679,16.902,29.679s-66.608-11.246-102.785-0.939L714.044,3740.209z"></path>
    <polygon fill="#11405C" points="1577.203 3654.172 1571.09 3663.513 1587.816 3659.445"></polygon>
    <path fill="#11405C" d="M1452.869,3738.566c0,0-7.834,16.027,7.398,20.831c15.234,4.802,154.078-26.131,181.048-46.212
			c26.971-20.082,33.041-80.091,14.263-73.656C1636.797,3645.965,1452.869,3738.566,1452.869,3738.566z"></path>
    <path fill="#FFC439" d="M1462.708,3724.312c0,0-21.415,23.136-6.182,27.939c15.235,4.805,154.078-26.131,181.048-46.212
			c26.973-20.081,36.781-72.945,18.003-66.51C1636.797,3645.965,1462.708,3724.312,1462.708,3724.312z"></path>
    <path fill="#D7A28E" d="M1589.597,3714.956c-12.924,3.18-27.915,6.94-43.091,10.474c-49.636,11.534-101.35,20.605-90.418-1.176
			c8.658-17.293-31.904-81.25-31.904-81.25l77.582-21.375l31.512,46.675c0,0,58.626-2.702,97.124-25.926
			C1656.176,3626.834,1644.806,3701.4,1589.597,3714.956z"></path>
    <path fill="#2F627C" d="M1559.898 3729.756c0 0 39.13-64.725 67.057-68.416 0 0-19.61-1.661-28.232-11.629 0 0-21.333-1.029-21.519 4.462-.283 8.533 32.904 9.157 32.904 9.157s-55.197 38.941-73.614 71.74L1559.898 3729.756zM877.982 2910.043c0 0 343.669 88.301 383.252 170.633 39.583 82.332 267.569 540.944 267.569 540.944l-102.048 49.003-334.143-419.487c0 0-316.374-103.402-398.924-147.491-82.55-44.09-62.849-224.872-62.849-224.872l246.19-7.631L877.982 2910.043z"></path>
    <path fill="#11405C" d="M1528.813,3621.639l-102.09,49.021l-334.042-419.508c0,0-316.405-103.41-399.026-147.475
			c-82.445-44.065-62.901-224.947-62.901-224.947l40.286-3.199l15.99,34.472c0,0,490.759,138.413,540.865,186.033
			c50.285,47.442-58.457,137.526-44.775,174.839c13.681,37.315,52.949,43.531,58.102,47.798
			c5.153,4.264-31.627,44.421-19.012,54.904c12.616,10.485,159.098,188.912,208.955,237.561
			C1455.981,3635.352,1528.813,3621.639,1528.813,3621.639z"></path>
    <path fill="#2F627C" d="M708.132,2875.531l-1.145,46.229c0,0,442.555,150.461,481.512,204.294
			c38.958,53.832-420.202,528.297-420.202,528.297l-93.281-45.388l197.44-355.76c0,0-219.724,21.682-312.561-43.234
			c-92.837-64.915-81.227-329.328-81.227-329.328L708.132,2875.531z"></path>
    <path fill="#11405C" d="M996.257 3231.252c-61.477 41.224-232.523 281.944-299.688 388.198l-21.561-10.445 197.405-355.72c0 0-219.745 21.677-312.495-43.354-92.928-64.854-81.201-329.246-81.201-329.246l180.881-2.666c-71.251 24.698-157.072 34.472-133.974 70.719 28.43 44.243 57.037 74.448 38.024 114.071-19.012 39.445-91.861 134.507 123.49 126.51 215.351-7.819 397.783-93.283 310.718-33.226-87.065 60.235-104.478 79.246-68.053 74.448C966.228 3225.743 1075.504 3178.125 996.257 3231.252zM781.851 2122.24c.194.658.332 1.331.521 1.993-9.31-30.508-24.591-58.745-45.17-83.051-36.215-42.763-91.077-40.186-127.558-20.529.048-.036.096-.072.144-.108-.1.056-.186.124-.285.176-1.523.822-2.924 1.74-4.376 2.617-11.15 6.664-21.269 15.169-29.64 25.261-9.528 11.546-16.607 24.885-22.787 38.355-6.286 13.436-11.409 27.322-18.67 39.839-3.665 6.205-7.793 12.125-12.874 17.072-4.992 4.899-11.065 9.135-17.065 13.162-24.129 16.272-52.81 24.551-80.58 34.3-14.128 4.816-27.697 11.294-40.253 19.3-12.275 8.351-24 17.881-32.767 29.853 9.755-11.106 21.667-20.014 34.259-27.447 12.662-7.366 26.127-13.265 40.127-17.472 14.166-4.207 28.222-8.819 42.182-13.955 13.896-5.212 27.732-11.355 40.218-19.774 6.181-4.277 12.261-8.588 17.765-14.094 5.453-5.437 9.77-11.806 13.528-18.334 7.426-13.164 12.477-27.151 18.107-40.708 4.849-11.68 10.471-23.014 17.541-33.417-18.722 32.409-25.398 72.545-40.776 92.534-35.426 46.049-105.661 40.721-164.478 84.183-60.903 45.002-67.875 152.95 10.176 216.093 73.563 59.502 239.984 42.963 334.487-61.268 61.376-67.691 84.802-144.893 78.136-215.135 3.472 30.466 2.152 61.375-4.715 91.123-5.421 22.969-13.848 45.21-25.204 65.873-11.362 20.653-25.37 39.858-41.471 57.11-16.094 17.234-33.538 33.38-52.853 46.956-19.171 13.775-40.106 25.034-61.962 33.985-21.87 8.94-44.828 15.322-68.258 18.894-23.391 3.69-47.31 4.95-70.998 2.448 47.224 7.026 96.195-.057 140.959-17.043 44.884-17.216 84.919-46.053 117.359-81.345 32.374-35.343 56.947-78.73 66.692-125.933C801.26 2216.694 797.424 2167.24 781.851 2122.24z"></path>
    <path fill="#FFC439" d="M721.854,2339.149l6.861-27.638l165.192,127.915c0,0-33.777,142.761-40.111,155.428
		s-102.457-44.333-102.457-44.333L721.854,2339.149z"></path>
    <path fill="#DBA12C" d="M792.811 2451.581c0 0 60.945 96.839 57.391 144.99-12.616 1.067-53.304-20.434-78.359-34.291l-18.479-181.238L792.811 2451.581zM893.913 2439.498c0 0-14.57 61.302-26.298 106.966l-65.565-178.038L893.913 2439.498z"></path>
    <path fill="#FFC439" d="M467.469,2896.497c3.961,25.589,359.411,39.396,424.327,15.642c64.916-23.754-37.999-52.017-37.999-71.008
		c0-18.992-41.166-217.731-41.166-224.491c0-6.76,0.938-55.264-2.229-82.216c-3.166-26.952-41.576-80.756-41.576-80.756
		s-25.86-137.685-40.111-142.157c-14.25-4.471-151.998,9.802-166.247,12.129C548.218,2325.967,447.02,2764.402,467.469,2896.497z"></path>
    <path fill="#DBA12C" d="M558.27 2330.403c1.776-4.265 3.198-6.577 4.264-6.752 14.215-2.31 151.919-16.525 166.132-12.083 3.376 1.067 7.464 9.417 11.55 21.854 0 .178 0 .178 0 .355 0 26.119-10.66 53.839-52.417 61.656C627.921 2406.629 580.835 2359.363 558.27 2330.403zM571.241 2871.09c5.686 12.261 63.61 43.531 151.385 53.126-118.692-.887-252.843-12.082-255.152-27.718-9.773-62.9 8.173-195.629 31.095-317.518l90.796-132.906c0 0-30.917 199.359-33.938 210.553-3.198 11.016-48.685 130.951-48.685 130.951l303.66-24.165 34.293 21.677c5.33 28.251 9.062 50.283 9.062 55.97 0 11.37 37.313 26.297 52.771 41.399-58.991 9.062-170.22 10.305-192.253 2.132-25.231-9.418-9.238-45.132-37.846-41.221C647.999 2847.458 563.244 2854.566 571.241 2871.09z"></path>
    <path fill="#D7A28E" d="M807.88,2207.878c0,0,212.882,321.763,220.08,364.81c7.198,43.046-15.292,53.621-49.082,60.958
		c-33.791,7.336-79.813-31.666-79.813-31.666l-133.457-372.077L807.88,2207.878z"></path>
    <g>
      <path fill="#CDEEFF" d="M1034.618,2664.51H788.492c-10.851,0-21.234,8.796-23.191,19.648l-28.213,156.499
			c-1.956,10.852,5.255,19.648,16.106,19.648h246.126c10.851,0,21.234-8.796,23.19-19.648l28.213-156.499
			C1052.681,2673.306,1045.469,2664.51,1034.618,2664.51z"></path>
      <path fill="#91C4F6" d="M1042.968,2671.03H796.842c-10.851,0-21.234,8.796-23.191,19.648l-28.213,156.499
			c-1.956,10.852,5.255,19.649,16.106,19.649h246.126c10.851,0,21.234-8.797,23.19-19.649l28.213-156.499
			C1061.03,2679.827,1053.819,2671.03,1042.968,2671.03z"></path>
      <path fill="#549BEC" d="M769.923,2866.826c0,0,241.692,0.613,242.124,0C1012.478,2866.212,917.781,2853.406,769.923,2866.826z"></path>
    </g>
    <path fill="#D7A28E" d="M532.24,2571.868l-53.378,176.114l235.396-10.883c0,0-16.836,69.374-15.253,74.124
		s-226.259,66.78-314.924,33.53c-88.665-33.25,14.283-292.105,14.283-292.105L532.24,2571.868z"></path>
    <path fill="#C18C7C" d="M406.775,2767.536c-7.921,9.622,81.804-14.197,62.277-21.705
		C449.525,2738.323,415.747,2756.638,406.775,2767.536z"></path>
    <path fill="#FFC439" d="M562.467,2323.64l-97.716,41.634c0,0-109.17,201.872-96.503,214.538
		c12.666,12.666,155.428,57.791,155.428,57.791l78.902-199.233C602.578,2438.37,625.8,2388.352,562.467,2323.64z"></path>
    <g>
      <path fill="#D7A28E" d="M721.423,2733.692c20.637-8.209,41.846-6.792,50.691-5.679c15.012,1.913,65.192,25.25,65.192,25.25
			s-1.971,7.33-4.182,9.5c-3.592,3.526-12.973,3.576-22.729,0.651c6.319,3.25,17.304,10.323,17.304,10.323s-4.435,7.74-7.211,9.15
			c-3.716,1.887-11.985,1.187-18.074-0.862c4.227,2.773,11.646,7.045,11.646,7.045s-5.952,8.149-8.914,9.13
			c-5.631,1.866-15.402-1.028-23.686-4.035c5.679,3.012,14.119,10.389,14.119,10.389s-6.761,6.2-9.427,7.159
			c-10.357,3.727-41.696-8.66-41.696-8.66c-20.328,24.402-41.188,9.351-55.443,10.033c-3.448,0.122-6.496-54.337-6.496-54.337
			S706.004,2739.787,721.423,2733.692z"></path>
      <path fill="#C18C7C" d="M775.11 2750.532c-.048.301 1.986.842 5.207 1.869 3.221 1.035 7.639 2.55 12.464 4.416 9.656 3.711 17.366 7.096 17.614 6.598.248-.483-7.131-4.701-16.902-8.457-4.878-1.886-9.45-3.218-12.82-3.918C777.297 2750.344 775.145 2750.29 775.11 2750.532zM769.062 2769.044c-.071.281 1.8 1.003 4.804 2.175 3.291 1.309 7.296 2.901 11.722 4.661 9.149 3.678 16.594 6.65 16.827 6.145.23-.492-6.875-4.289-16.085-7.993-4.602-1.853-8.868-3.307-12.023-4.15C771.148 2769.04 769.123 2768.792 769.062 2769.044zM765.115 2787.697c-.213.507 3.958 2.747 9.317 5.004 5.359 2.257 9.877 3.676 10.09 3.168.213-.507-3.958-2.747-9.317-5.003C769.846 2788.609 765.329 2787.19 765.115 2787.697z"></path>
    </g>
    <g>
      <path fill="#91C4F6" d="M701.441,2173.58l88.996,74.237c3.923,3.273,10.331,3.224,14.311-0.109l36.736-29.49
			c3.981-3.334,4.027-8.69,0.103-11.963l-88.996-74.237c-3.923-3.273-10.331-3.224-14.311,0.11l-36.736,29.49
			C697.563,2164.952,697.517,2170.308,701.441,2173.58z"></path>
      <path fill="#CDEEFF" d="M690.672,2173.58l88.996,74.237c3.923,3.273,10.331,3.224,14.311-0.109l36.736-29.49
			c3.981-3.334,4.027-8.69,0.103-11.963l-88.996-74.237c-3.923-3.273-10.331-3.224-14.311,0.11l-36.736,29.49
			C686.794,2164.952,686.748,2170.308,690.672,2173.58z"></path>
      <path fill="#D7A28E" d="M780.029,2150.022c0,0,1.094-10.768-13.001-7.199c-14.096,3.57-13.588,13.294-9.149,14.867
						c4.439,1.573,7.17,2.912,13.4-2.115c0,0-2.967,6.298,1.748,8.803c4.715,2.504,9.57,0.356,9.57,0.356s-3.792,5.049-2.236,7.288
						s8.221,3.944,13.986,0.083c0,0-2.263,6.719,6.133,7.27c5.615,0.367,7.528-0.918,7.528-0.918l6.371,5.673
						c0,0,5.056-13.794-9.871-18.429c0,0-0.697-10.091-12.073-6.703C792.434,2158.997,792.8,2145.114,780.029,2150.022z"></path>
      <path fill="#C18C7C" d="M779.98 2150.145c.124.444-2.1 1.326-4.49 2.905-2.423 1.546-4.069 3.218-4.404 2.993-.387-.229.904-2.576 3.567-4.278C777.298 2150.03 779.903 2149.768 779.98 2150.145zM792.615 2158.73c.044.22-.532.529-1.415 1.053-.889.523-2.099 1.281-3.439 2.143-2.679 1.722-4.891 3.141-5.165 2.809-.269-.318 1.552-2.308 4.337-4.1 1.39-.895 2.767-1.549 3.842-1.849C791.853 2158.481 792.579 2158.534 792.615 2158.73zM804.506 2165.701c.018.233-.634.458-1.588.938-.957.49-2.222 1.276-3.569 2.267-2.699 1.974-4.774 3.829-5.095 3.536-.311-.268 1.318-2.667 4.193-4.776 1.428-1.053 2.927-1.774 4.1-2.046C803.733 2165.354 804.499 2165.512 804.506 2165.701z"></path>
    </g>
    <g>
      <path fill="#D7A28E" d="M574.262,2320.413l145.217-11.083c0,0,10.905,58.098-34.698,71.556
				C639.178,2394.345,582.97,2358.413,574.262,2320.413z"></path>
      <path fill="#D7A28E" d="M697.312,2347.858
					c-21.083,5.004-85.433-7.501-81.013-24.218c4.07-15.347,10.531-99.401,9.509-133.758l78.495,49.691
					C704.233,2247.359,703.118,2301.414,697.312,2347.858z"></path>
      <path fill="#D7A28E" d="M614.491,2148.127c1.058,17.735,5.376,34.846,7.864,46.188c9.4,43.345,95.454,66.574,100.628,65.222
					c18.947-4.951,61.391-37.344,50.93-72.447c-12.201-40.879-21.994-44.257-23.636-84.023c-0.125-3.907-0.841-7.25-1.987-10.302
					c-12.356,3.435-48.133,1.567-57.703-9.119c-1.895,15.762-45.225,30.319-65.708,28.327c-1.343,9.591,10.823,48.25,0.855,49.773
					C623.354,2162.142,618.879,2156.783,614.491,2148.127z"></path>
      <path fill="#C18C7C" d="M723,2259.569c-0.03,1.722-15.657,3.092-34.145-2.648c-9.195-2.826-16.972-7.314-21.798-11.525
						c-4.876-4.258-6.646-7.987-5.937-8.554c0.792-0.683,3.745,1.637,8.841,4.463c5.123,2.829,12.445,6.204,21.056,8.851
						C708.183,2255.528,723.167,2257.395,723,2259.569z"></path>
      <path fill="#D7A28E" d="M626.613,2190.394c-19.589,16.202-42.372-31.086-24.003-41.955c5.304-3.141,16.302-5.544,20.572,5.297
					C627.788,2165.435,630.904,2186.845,626.613,2190.394z"></path>
      <path fill="#11405C" d="M608.961 2156.89c5.046 2.988 14.943 13.99 10.461 23.748 0 0-.68-6.128-4.379-9.472l-8.621-2.78 8.105-1.549L608.961 2156.89zM713.108 2154.743c-3.62 1.946 10.032 14.495 2.767 16.811-7.265 2.314 5.216 3.724 5.991-2.371C722.638 2163.091 716.318 2153.017 713.108 2154.743z"></path>
      <g>
        <path fill="#11405C" d="M686.693,2146.946c2.182,4.011,0.907,8.916-2.844,10.954c-3.752,2.038-8.557,0.44-10.736-3.574
							c-2.182-4.011-0.91-8.919,2.842-10.957C679.706,2141.331,684.514,2142.931,686.693,2146.946z"></path>
        <path fill="#FFF" d="M684.773,2145.783c0.637,1.372,0.227,2.91-0.908,3.438c-1.143,0.526-2.58-0.156-3.214-1.526
						c-0.634-1.372-0.224-2.913,0.915-3.438C682.701,2143.732,684.142,2144.414,684.773,2145.783z"></path>
        <path fill="#11405C" d="M652.306,2143.32c-2.086,0.76-5.258-4.644-3.579-6.099c0,0,16.92-20.791,36.287-16.616
						c0,0,1.606,3.987,1.493,5.378c-0.176,2.19-9.389,3.188-11.779,3.73C667.526,2131.348,652.306,2143.32,652.306,2143.32z"></path>
        <g>
          <path fill="#11405C" d="M739.624,2134.153c0.484,4.542-2.561,8.593-6.807,9.046c-4.245,0.456-8.079-2.856-8.566-7.398
							c-0.488-4.542,2.561-8.591,6.803-9.046C735.3,2126.302,739.137,2129.614,739.624,2134.153z"></path>
          <path fill="#FFF" d="M738.29,2132.353c0.064,1.506-0.901,2.773-2.153,2.826c-1.252,0.053-2.322-1.128-2.386-2.634
						c-0.064-1.512,0.901-2.776,2.153-2.829C737.158,2129.66,738.229,2130.841,738.29,2132.353z"></path>
          <path fill="#11405C" d="M741.834,2115.441c1.616-0.309,1.559-4.474,0.14-4.924c0,0-25.836-2.466-27.062,0.785
						c0,0-0.63,4.047-0.358,5.156c0.431,1.741,2.506,3.289,5.18,2.776L741.834,2115.441z"></path>
        </g>
      </g>
      <path fill="#FFF" d="M704.362,2203.513
				c24.341,1.411,25.91-7.787,35.95-8.799c5.491-0.552,8.877,3.825,7.529,8.417c0,0-6.486,21.606-34.892,17.417
				C695.044,2217.914,698.994,2203.205,704.362,2203.513z"></path>
    </g>
  </g>
  <g>
    <path fill="#CDEEFF" d="M1733.067,1723.638h-655.906c-35.361,0-64.117,28.676-64.117,64.117v351.003l-130.73,69.111
		c4.269-0.322,74.99-1.852,130.972-3.062c2.9,32.784,30.447,58.479,63.875,58.479h655.906c35.442,0,64.117-28.756,64.117-64.198
		v-411.334C1797.184,1752.314,1768.509,1723.638,1733.067,1723.638z"></path>
    <path fill="#FFF" d="M1391.259 2009.204v125.392c0 21.113-17.07 38.183-38.119 38.183h-195.788c-21.112 0-38.182-17.07-38.182-38.183v-162.354c0-21.049 17.069-38.118 38.182-38.118h166.076c-.898 3.08-3.209 5.711-6.674 6.739-9.37 2.759-9.37 16.043 0 18.802 6.609 1.99 9.177 9.947 5.005 15.402-1.476 1.86-2.053 3.913-2.053 5.967 0 6.16 6.16 11.743 13.09 9.24 6.482-2.31 13.284 2.632 13.091 9.498-.257 9.754 12.385 13.861 17.904 5.84 1.925-2.888 5.005-4.3 8.086-4.3 3.08 0 6.16 1.412 8.086 4.3C1382.788 2009.718 1387.408 2010.617 1391.259 2009.204zM1438.931 2008.195h199.096c5.761 0 10.436-4.674 10.436-10.442 0-5.767-4.674-10.438-10.436-10.438h-199.096c-5.765 0-10.444 4.671-10.444 10.438C1428.487 2003.521 1433.166 2008.195 1438.931 2008.195zM1671.664 2008.195h28.389c5.763 0 10.438-4.674 10.438-10.442 0-5.767-4.674-10.438-10.438-10.438h-28.389c-5.763 0-10.44 4.671-10.44 10.438C1661.224 2003.521 1665.901 2008.195 1671.664 2008.195zM1482.416 2098.67h-43.485c-5.765 0-10.444 4.672-10.444 10.438 0 5.77 4.679 10.444 10.444 10.444h43.485c5.764 0 10.438-4.674 10.438-10.444C1492.855 2103.342 1488.18 2098.67 1482.416 2098.67zM1590.294 2098.67h-74.236c-5.765 0-10.44 4.672-10.44 10.438 0 5.77 4.674 10.444 10.44 10.444h74.236c5.765 0 10.442-4.674 10.442-10.444C1600.736 2103.342 1596.059 2098.67 1590.294 2098.67zM1700.053 2042.992h-120.202c-5.763 0-10.438 4.674-10.438 10.438 0 5.767 4.674 10.438 10.438 10.438h120.202c5.763 0 10.438-4.67 10.438-10.438C1710.491 2047.667 1705.817 2042.992 1700.053 2042.992zM1438.931 2063.868h107.279c5.768 0 10.444-4.67 10.444-10.438 0-5.764-4.676-10.438-10.444-10.438h-107.279c-5.765 0-10.444 4.674-10.444 10.438C1428.487 2059.198 1433.166 2063.868 1438.931 2063.868z"></path>
    <g>
      <polygon fill="#FFC439" points="1167.668 2010.896 1254.442 1992.461 1341.216 2005.193 1255.97 2034.589"></polygon>
      <polygon fill="#DBA12C" points="1258.329 2122.944 1342.783 2102.322 1341.216 2005.193 1255.672 2023.395"></polygon>
      <polygon fill="#CDEEFF" points="1206.496 2002.648 1233.647 1997.04 1310.548 2011.215 1311.482 2030.732 1300.794 2034.034 1298.812 2030.853 1297.775 2035.363 1289.615 2038.184 1289.343 2017.283" opacity=".5"></polygon>
      <polygon fill="#CDEEFF" points="1298.889 2113.075 1298.84 2097.923 1304.079 2096.906 1305.233 2098.757 1305.836 2096.166 1319.54 2092.278 1321.147 2107.627" opacity=".5"></polygon>
      <polygon fill="#FFC439" points="1167.668 2010.896 1170.457 2110.668 1258.329 2122.944 1255.672 2023.395"></polygon>
      <path fill="#DBA12C" d="M1167.668,2010.896l88.003,12.499c0,0-27.457,3.23-45.69,0
				C1191.747,2020.165,1167.668,2010.896,1167.668,2010.896z"></path>
    </g>
    <path fill="#FFF" d="M1409.409,1943.867L1409.409,1943.867c-4.501-1.326-6.266-6.759-3.404-10.477
			c4.061-5.276-1.256-12.594-7.529-10.363l0,0c-4.421,1.573-9.042-1.785-8.912-6.475l0,0c0.184-6.656-8.419-9.45-12.182-3.958
			c-2.651,3.871-8.364,3.871-11.015,0l0,0c-3.763-5.492-12.366-2.697-12.182,3.958l0,0c0.13,4.69-4.491,8.047-8.912,6.475l0,0
			c-6.273-2.232-11.59,5.086-7.529,10.363l0,0c2.862,3.718,1.097,9.151-3.404,10.477c-6.386,1.881-6.386,10.927,0,12.808
			c4.501,1.326,6.266,6.759,3.404,10.477l0,0c-4.061,5.276,1.256,12.594,7.529,10.363c4.421-1.573,9.042,1.785,8.912,6.475
			c-0.184,6.656,8.419,9.451,12.182,3.958l0,0c2.651-3.87,8.364-3.87,11.015,0c3.763,5.492,12.366,2.697,12.182-3.958
			c-0.13-4.69,4.491-8.047,8.912-6.475c6.273,2.232,11.59-5.086,7.529-10.363c-2.862-3.718-1.097-9.151,3.404-10.477h0.001
			C1415.796,1954.794,1415.796,1945.749,1409.409,1943.867z"></path>
    <g>
      <path fill="#CDEEFF" d="M1370.295,1965.037c-3.11-0.271-6.524-1.532-8.819-3.423l2.652-3.511
				c2.394,1.667,4.789,2.793,7.542,2.793c3.312,0,4.943-1.44,4.943-3.87c0-5.941-13.864-5.087-13.864-13.55
				c0-4.186,2.957-7.158,7.545-7.877v-4.593h4.078v4.501c3.262,0.363,5.503,1.756,7.389,3.511l-3.007,3.016
				c-1.887-1.528-3.465-2.386-5.912-2.386c-2.753,0-4.434,1.261-4.434,3.603c0,5.399,13.863,4.322,13.863,13.415
				c0,4.274-2.855,7.426-7.9,8.236v4.637h-4.078V1965.037z"></path>
    </g>
    <g>
      <path fill="#91C4F6" d="M1153.754 1852.865c-19.031 0-34.583-14.301-34.583-34.588 0-20.184 15.552-34.485 34.583-34.485 19.225 0 34.489 14.301 34.489 34.485C1188.243 1838.564 1172.88 1852.865 1153.754 1852.865zM1153.754 1840.79c12.173 0 20.578-8.794 20.578-22.513 0-13.718-8.405-22.316-20.578-22.316-12.267 0-20.672 8.598-20.672 22.316C1133.082 1831.996 1141.487 1840.79 1153.754 1840.79zM1223.64 1784.76c16.232 0 24.345 9.369 24.345 20.672 0 8.212-4.539 16.519-15.362 19.414l16.133 27.342h-15.65l-14.874-26.28h-6.375v26.28h-13.526v-67.428H1223.64zM1223.156 1795.961h-11.299v19.807h11.299c7.536 0 10.919-3.964 10.919-10.045C1234.075 1799.729 1230.692 1795.961 1223.156 1795.961zM1319.409 1818.568c0 20.381-14.01 33.619-35.551 33.619h-23.571v-67.428h23.571C1305.4 1784.76 1319.409 1798.093 1319.409 1818.568zM1283.375 1840.696c14.203 0 22.222-8.118 22.222-22.128s-8.019-22.41-22.222-22.41h-9.561v44.538H1283.375zM1368.718 1795.67h-25.6v16.912h22.701v10.721h-22.701v17.872h25.6v11.012h-39.125v-67.53h39.125V1795.67zM1406.322 1784.76c16.232 0 24.345 9.369 24.345 20.672 0 8.212-4.539 16.519-15.362 19.414l16.133 27.342h-15.649l-14.875-26.28h-6.375v26.28h-13.525v-67.428H1406.322zM1405.837 1795.961h-11.299v19.807h11.299c7.536 0 10.919-3.964 10.919-10.045C1416.756 1799.729 1413.373 1795.961 1405.837 1795.961zM1523.647 1784.658v67.53h-13.525l-30.623-46.276v46.276h-13.526v-67.53h13.526l30.623 46.37v-46.37H1523.647zM1568.315 1852.865c-19.032 0-34.584-14.301-34.584-34.588 0-20.184 15.552-34.485 34.584-34.485 19.224 0 34.489 14.301 34.489 34.485C1602.804 1838.564 1587.441 1852.865 1568.315 1852.865zM1568.315 1840.79c12.173 0 20.577-8.794 20.577-22.513 0-13.718-8.405-22.316-20.577-22.316-12.268 0-20.672 8.598-20.672 22.316C1547.643 1831.996 1556.048 1840.79 1568.315 1840.79zM1608.35 1784.76h14.493l11.882 52.357 13.718-52.357h15.072l12.943 52.066 11.98-52.066h14.587l-18.839 67.428h-15.941l-12.656-48.014-13.235 48.014-15.842.095L1608.35 1784.76z"></path>
    </g>
  </g>
  <g>
    <path fill="#91C4F6" d="M885.027,1843.453c-20.096-28.912-45.759-3.722-45.759-3.722s-25.666-25.19-45.761,3.722
					c-21.208,30.505,18.974,77.411,45.761,90.062C866.054,1920.864,906.234,1873.958,885.027,1843.453z"></path>
    <path fill="#CDEEFF" d="M486.225,1913.756c-13.205-18.998-30.069-2.446-30.069-2.446s-16.865-16.553-30.07,2.446
					c-13.936,20.046,12.468,50.868,30.07,59.182C473.757,1964.624,500.161,1933.802,486.225,1913.756z"></path>
    <path fill="#91C4F6" d="M1179.107,2606.518l47.691-0.141l0.252,91.001l-47.68,0.143c-7.75,0.015-14.05-6.252-14.071-14.002
			l-0.189-62.924C1165.084,2612.839,1171.352,2606.54,1179.107,2606.518z"></path>
    <path fill="#CDEEFF" d="M1326.808,2635.496h-0.463l-0.052-15.685c-0.011-8.318-6.778-15.043-15.101-15.017l-42.27,0.121
			c0,0,17.141-24.024,17.099-39.394c-0.037-13.75-0.71-31.969-21.001-31.917c0,0-7.356,4.558-7.298,25.223
			c0.053,19.066-39.215,47.46-39.215,47.46l0.268,94.073c0,0,8.634,7.961,22.163,7.929l61.173-0.173
			c8.66-0.026,15.664-7.067,15.637-15.727l-0.026-9.522c5.09-0.026,9.212-4.164,9.191-9.259l-0.026-11.068
			c3.055,0,5.521-2.493,5.516-5.547l-0.047-15.98C1332.344,2637.952,1329.857,2635.486,1326.808,2635.496z"></path>
  </g>
</svg>
