<svg width="25" height="24" viewBox="0 0 25 24" fill="none" xmlns="http://www.w3.org/2000/svg">
<path d="M0.875 7.2C0.875 5.93369 0.875292 5.00652 0.935063 4.27495C0.994478 3.54775 1.11079 3.04692 1.3246 2.62729C1.72008 1.85112 2.35112 1.22008 3.12729 0.824598C3.54692 0.610788 4.04775 0.494478 4.77495 0.435063C5.50652 0.375292 6.43369 0.375 7.7 0.375H17.3C18.5663 0.375 19.4935 0.375292 20.2251 0.435063C20.9522 0.494478 21.4531 0.610788 21.8727 0.824598C22.6489 1.22008 23.2799 1.85112 23.6754 2.62729C23.8892 3.04692 24.0055 3.54775 24.0649 4.27495C24.1247 5.00652 24.125 5.93369 24.125 7.2V16.8C24.125 18.0663 24.1247 18.9935 24.0649 19.7251C24.0055 20.4522 23.8892 20.9531 23.6754 21.3727C23.2799 22.1489 22.6489 22.7799 21.8727 23.1754C21.4531 23.3892 20.9522 23.5055 20.2251 23.5649C19.4935 23.6247 18.5663 23.625 17.3 23.625H7.7C6.43369 23.625 5.50652 23.6247 4.77495 23.5649C4.04775 23.5055 3.54692 23.3892 3.12729 23.1754C2.35112 22.7799 1.72008 22.1489 1.3246 21.3727C1.11079 20.9531 0.994478 20.4522 0.935063 19.7251C0.875292 18.9935 0.875 18.0663 0.875 16.8V7.2Z" fill="#101114" stroke="#1A1D1F" stroke-width="0.75"/>
<path fill-rule="evenodd" clip-rule="evenodd" d="M12.4831 12.0875H12.4993C14.085 12.0875 15.375 10.7981 15.375 9.21313C15.375 7.62751 14.085 6.33813 12.4993 6.33813C10.9143 6.33813 9.62434 7.62751 9.62434 9.21188C9.62059 10.7925 10.9018 12.0825 12.4831 12.0875ZM10.5618 9.21313C10.5618 8.14501 11.4312 7.27563 12.4993 7.27563C13.5681 7.27563 14.4375 8.14501 14.4375 9.21313C14.4375 10.2813 13.5681 11.15 12.4993 11.15H12.4843C11.4212 11.1463 10.5593 10.2781 10.5618 9.21313Z" fill="#4DBDC9"/>
<path fill-rule="evenodd" clip-rule="evenodd" d="M8.27698 15.6607C8.27698 17.6619 11.4551 17.6619 12.4995 17.6619C13.5439 17.6619 16.722 17.6619 16.722 15.6501C16.722 14.1332 14.8282 12.8982 12.4995 12.8982C10.1707 12.8982 8.27698 14.1369 8.27698 15.6607ZM9.21448 15.6607C9.21448 14.7994 10.6195 13.8357 12.4995 13.8357C14.3795 13.8357 15.7845 14.7938 15.7845 15.6501C15.7845 16.5382 13.9976 16.7244 12.4995 16.7244C11.0014 16.7244 9.21448 16.5401 9.21448 15.6607Z" fill="#4DBDC9"/>
</svg>
